<?xml version="1.0" standalone="no"?>
<!DOCTYPE svg PUBLIC "-//W3C//DTD SVG 20010904//EN"
 "http://www.w3.org/TR/2001/REC-SVG-20010904/DTD/svg10.dtd">
<svg version="1.0" xmlns="http://www.w3.org/2000/svg"
 width="260.000000pt" height="260.000000pt" viewBox="0 0 260.000000 260.000000"
 preserveAspectRatio="xMidYMid meet">
<metadata>
Created by potrace 1.11, written by Peter Selinger 2001-2013
</metadata>
<g transform="translate(0.000000,260.000000) scale(0.100000,-0.100000)"
fill="#000000" stroke="none">
<path d="M1120 2394 c-199 -27 -406 -93 -575 -183 -132 -70 -235 -140 -235
-158 0 -9 41 -88 92 -177 909 -1599 987 -1734 1000 -1742 5 -3 20 -3 33 0 24
6 22 2 114 262 l38 110 -139 250 c-175 313 -251 454 -247 458 2 2 29 12 59 22
81 28 283 26 403 -4 49 -12 93 -22 97 -22 7 0 119 206 148 272 4 9 -133 52
-233 73 -106 22 -282 30 -375 17 -41 -6 -113 -23 -160 -37 -47 -14 -91 -27
-99 -28 -9 -1 -59 77 -132 208 -66 116 -119 214 -119 218 0 13 136 72 230 101
137 41 248 56 416 56 238 0 445 -38 659 -120 61 -23 117 -44 125 -46 21 -6
152 219 148 254 -8 70 -364 189 -660 221 -134 15 -461 12 -588 -5z"/>
</g>
</svg>
